<mxfile host="app.diagrams.net" modified="2024-04-08T19:27:05.617Z" agent="Mozilla/5.0 (Windows NT 10.0; Win64; x64) AppleWebKit/537.36 (KHTML, like Gecko) Chrome/123.0.0.0 Safari/537.36 Edg/123.0.0.0" etag="rMMMOVwR8ERI7pMR6XdV" version="24.2.2" type="github" pages="2">
  <diagram name="Page-1" id="fB6h32neheZBJvaYyz-M">
    <mxGraphModel dx="1342" dy="688" grid="1" gridSize="10" guides="1" tooltips="1" connect="1" arrows="1" fold="1" page="1" pageScale="1" pageWidth="850" pageHeight="1100" math="0" shadow="0">
      <root>
        <mxCell id="0" />
        <mxCell id="1" parent="0" />
        <mxCell id="WjoO_MJBStT16dwO6STz-3" value="" style="edgeStyle=orthogonalEdgeStyle;rounded=0;orthogonalLoop=1;jettySize=auto;html=1;" parent="1" source="WjoO_MJBStT16dwO6STz-1" target="WjoO_MJBStT16dwO6STz-2" edge="1">
          <mxGeometry relative="1" as="geometry" />
        </mxCell>
        <mxCell id="WjoO_MJBStT16dwO6STz-1" value="START" style="ellipse;whiteSpace=wrap;html=1;" parent="1" vertex="1">
          <mxGeometry x="360" y="210" width="120" height="80" as="geometry" />
        </mxCell>
        <mxCell id="WjoO_MJBStT16dwO6STz-5" value="" style="edgeStyle=orthogonalEdgeStyle;rounded=0;orthogonalLoop=1;jettySize=auto;html=1;" parent="1" source="WjoO_MJBStT16dwO6STz-2" edge="1">
          <mxGeometry relative="1" as="geometry">
            <mxPoint x="420" y="520" as="targetPoint" />
          </mxGeometry>
        </mxCell>
        <mxCell id="WjoO_MJBStT16dwO6STz-2" value="ARR = {3,6,4,7,2,1,9};&lt;div&gt;X=7;&lt;/div&gt;" style="shape=parallelogram;perimeter=parallelogramPerimeter;whiteSpace=wrap;html=1;fixedSize=1;" parent="1" vertex="1">
          <mxGeometry x="345" y="380" width="150" height="60" as="geometry" />
        </mxCell>
        <mxCell id="WjoO_MJBStT16dwO6STz-8" value="" style="edgeStyle=orthogonalEdgeStyle;rounded=0;orthogonalLoop=1;jettySize=auto;html=1;" parent="1" source="WjoO_MJBStT16dwO6STz-6" target="WjoO_MJBStT16dwO6STz-7" edge="1">
          <mxGeometry relative="1" as="geometry" />
        </mxCell>
        <mxCell id="s10NFwCoaK1onwXfpeWf-2" value="" style="edgeStyle=orthogonalEdgeStyle;rounded=0;orthogonalLoop=1;jettySize=auto;html=1;" parent="1" source="WjoO_MJBStT16dwO6STz-6" target="s10NFwCoaK1onwXfpeWf-1" edge="1">
          <mxGeometry relative="1" as="geometry" />
        </mxCell>
        <mxCell id="WjoO_MJBStT16dwO6STz-6" value="I = 0, I &amp;lt; ARR.LENGTH" style="shape=hexagon;perimeter=hexagonPerimeter2;whiteSpace=wrap;html=1;fixedSize=1;" parent="1" vertex="1">
          <mxGeometry x="330" y="520" width="180" height="80" as="geometry" />
        </mxCell>
        <mxCell id="WjoO_MJBStT16dwO6STz-10" value="" style="edgeStyle=orthogonalEdgeStyle;rounded=0;orthogonalLoop=1;jettySize=auto;html=1;" parent="1" source="WjoO_MJBStT16dwO6STz-7" target="WjoO_MJBStT16dwO6STz-9" edge="1">
          <mxGeometry relative="1" as="geometry" />
        </mxCell>
        <mxCell id="WjoO_MJBStT16dwO6STz-11" value="YES" style="edgeLabel;html=1;align=center;verticalAlign=middle;resizable=0;points=[];" parent="WjoO_MJBStT16dwO6STz-10" vertex="1" connectable="0">
          <mxGeometry x="0.075" y="2" relative="1" as="geometry">
            <mxPoint as="offset" />
          </mxGeometry>
        </mxCell>
        <mxCell id="WjoO_MJBStT16dwO6STz-12" style="edgeStyle=orthogonalEdgeStyle;rounded=0;orthogonalLoop=1;jettySize=auto;html=1;entryX=0;entryY=0.5;entryDx=0;entryDy=0;" parent="1" source="WjoO_MJBStT16dwO6STz-7" target="WjoO_MJBStT16dwO6STz-6" edge="1">
          <mxGeometry relative="1" as="geometry">
            <mxPoint x="150" y="560" as="targetPoint" />
            <Array as="points">
              <mxPoint x="190" y="720" />
              <mxPoint x="190" y="560" />
            </Array>
          </mxGeometry>
        </mxCell>
        <mxCell id="WjoO_MJBStT16dwO6STz-14" value="NO" style="edgeLabel;html=1;align=center;verticalAlign=middle;resizable=0;points=[];" parent="WjoO_MJBStT16dwO6STz-12" vertex="1" connectable="0">
          <mxGeometry x="-0.7131" y="1" relative="1" as="geometry">
            <mxPoint as="offset" />
          </mxGeometry>
        </mxCell>
        <mxCell id="WjoO_MJBStT16dwO6STz-7" value="ARR[I] = X" style="rhombus;whiteSpace=wrap;html=1;" parent="1" vertex="1">
          <mxGeometry x="355" y="680" width="130" height="80" as="geometry" />
        </mxCell>
        <mxCell id="WjoO_MJBStT16dwO6STz-9" value="PRINT I;&lt;div&gt;BREAK&lt;/div&gt;" style="shape=document;whiteSpace=wrap;html=1;boundedLbl=1;" parent="1" vertex="1">
          <mxGeometry x="360" y="840" width="120" height="80" as="geometry" />
        </mxCell>
        <mxCell id="WjoO_MJBStT16dwO6STz-13" value="I++" style="rounded=0;whiteSpace=wrap;html=1;" parent="1" vertex="1">
          <mxGeometry x="130" y="610" width="120" height="60" as="geometry" />
        </mxCell>
        <mxCell id="s10NFwCoaK1onwXfpeWf-1" value="PRINT &quot;NO SUCH NUMBER&quot;" style="shape=document;whiteSpace=wrap;html=1;boundedLbl=1;" parent="1" vertex="1">
          <mxGeometry x="620" y="840" width="120" height="80" as="geometry" />
        </mxCell>
        <mxCell id="fUHR-lsrMUdIRmNic9rQ-1" value="&lt;div style=&quot;text-align: justify;&quot;&gt;&lt;span style=&quot;background-color: rgb(255, 255, 255); font-family: NaMU, Arial, sans-serif; text-wrap: wrap;&quot;&gt;Найти индекс заданного числа в массиве: {3, 6, 4, 7, 2, 1, 9}&amp;nbsp;&lt;/span&gt;&lt;/div&gt;&lt;div style=&quot;text-align: justify;&quot;&gt;&lt;span style=&quot;background-color: rgb(255, 255, 255); font-family: NaMU, Arial, sans-serif; text-wrap: wrap;&quot;&gt;Алгоритм на вход должен получать любой массив и одну цифру,&amp;nbsp;&lt;/span&gt;&lt;/div&gt;&lt;div style=&quot;text-align: justify;&quot;&gt;&lt;span style=&quot;background-color: rgb(255, 255, 255); font-family: NaMU, Arial, sans-serif; text-wrap: wrap;&quot;&gt;индекс которой требуется найти. Задание считается выполненным если:&amp;nbsp;&lt;/span&gt;&lt;/div&gt;&lt;div style=&quot;text-align: justify;&quot;&gt;&lt;span style=&quot;background-color: rgb(255, 255, 255); font-family: NaMU, Arial, sans-serif; text-wrap: wrap;&quot;&gt;использован ”Линейный подход” начиная от последнего элемента и&lt;/span&gt;&lt;/div&gt;&lt;div style=&quot;text-align: justify;&quot;&gt;&lt;span style=&quot;background-color: rgb(255, 255, 255); font-family: NaMU, Arial, sans-serif; text-wrap: wrap;&quot;&gt;&amp;nbsp;алгоритм соответствует характеристикам алгоритма и выдает верный результат.&amp;nbsp;&lt;/span&gt;&lt;/div&gt;&lt;div style=&quot;text-align: justify;&quot;&gt;&lt;span style=&quot;background-color: rgb(255, 255, 255); font-family: NaMU, Arial, sans-serif; text-wrap: wrap;&quot;&gt;Используйте блок схему.&amp;nbsp;&lt;/span&gt;&lt;/div&gt;" style="text;html=1;align=center;verticalAlign=middle;resizable=0;points=[];autosize=1;strokeColor=none;fillColor=none;rotation=0;" vertex="1" parent="1">
          <mxGeometry x="10" y="160" width="480" height="100" as="geometry" />
        </mxCell>
      </root>
    </mxGraphModel>
  </diagram>
  <diagram id="vNHSJ5Cno3rLMGNHz-jm" name="Page-2">
    <mxGraphModel dx="872" dy="447" grid="1" gridSize="10" guides="1" tooltips="1" connect="1" arrows="1" fold="1" page="1" pageScale="1" pageWidth="850" pageHeight="1100" math="0" shadow="0">
      <root>
        <mxCell id="0" />
        <mxCell id="1" parent="0" />
        <mxCell id="wYb_8j9pllb6LR2uKTDN-5" value="" style="edgeStyle=orthogonalEdgeStyle;rounded=0;orthogonalLoop=1;jettySize=auto;html=1;" parent="1" source="wYb_8j9pllb6LR2uKTDN-1" target="wYb_8j9pllb6LR2uKTDN-4" edge="1">
          <mxGeometry relative="1" as="geometry" />
        </mxCell>
        <mxCell id="wYb_8j9pllb6LR2uKTDN-1" value="START" style="ellipse;whiteSpace=wrap;html=1;" parent="1" vertex="1">
          <mxGeometry x="365.5" y="10" width="120" height="80" as="geometry" />
        </mxCell>
        <mxCell id="CAbDBLqzX8sOtJvfaLqi-4" style="edgeStyle=orthogonalEdgeStyle;rounded=0;orthogonalLoop=1;jettySize=auto;html=1;" parent="1" source="wYb_8j9pllb6LR2uKTDN-4" target="CAbDBLqzX8sOtJvfaLqi-3" edge="1">
          <mxGeometry relative="1" as="geometry" />
        </mxCell>
        <mxCell id="wYb_8j9pllb6LR2uKTDN-4" value="ARR ={3,6,4,7,2,1,9};&lt;div&gt;SQUARESUM = 0&lt;/div&gt;" style="shape=parallelogram;perimeter=parallelogramPerimeter;whiteSpace=wrap;html=1;fixedSize=1;" parent="1" vertex="1">
          <mxGeometry x="353" y="180" width="145" height="60" as="geometry" />
        </mxCell>
        <mxCell id="yib6RBHgo7TCA4eGr_tR-3" style="edgeStyle=orthogonalEdgeStyle;rounded=0;orthogonalLoop=1;jettySize=auto;html=1;exitX=0.5;exitY=1;exitDx=0;exitDy=0;" parent="1" source="CAbDBLqzX8sOtJvfaLqi-3" target="yib6RBHgo7TCA4eGr_tR-4" edge="1">
          <mxGeometry relative="1" as="geometry">
            <mxPoint x="200" y="590" as="targetPoint" />
            <Array as="points">
              <mxPoint x="426" y="500" />
            </Array>
          </mxGeometry>
        </mxCell>
        <mxCell id="yib6RBHgo7TCA4eGr_tR-7" value="" style="edgeStyle=orthogonalEdgeStyle;rounded=0;orthogonalLoop=1;jettySize=auto;html=1;" parent="1" source="CAbDBLqzX8sOtJvfaLqi-3" target="yib6RBHgo7TCA4eGr_tR-6" edge="1">
          <mxGeometry relative="1" as="geometry" />
        </mxCell>
        <mxCell id="CAbDBLqzX8sOtJvfaLqi-3" value="I = 0, I &amp;lt; ARR.LENGTH" style="shape=hexagon;perimeter=hexagonPerimeter2;whiteSpace=wrap;html=1;fixedSize=1;" parent="1" vertex="1">
          <mxGeometry x="343.25" y="310" width="164.5" height="80" as="geometry" />
        </mxCell>
        <mxCell id="yib6RBHgo7TCA4eGr_tR-5" style="edgeStyle=orthogonalEdgeStyle;rounded=0;orthogonalLoop=1;jettySize=auto;html=1;entryX=0;entryY=0.5;entryDx=0;entryDy=0;" parent="1" source="yib6RBHgo7TCA4eGr_tR-4" target="CAbDBLqzX8sOtJvfaLqi-3" edge="1">
          <mxGeometry relative="1" as="geometry">
            <Array as="points">
              <mxPoint x="190" y="350" />
            </Array>
          </mxGeometry>
        </mxCell>
        <mxCell id="yib6RBHgo7TCA4eGr_tR-4" value="SQUARESUM =&lt;br&gt;ARR[I] * ARR[I] + SQUARESUM;&lt;div&gt;I++&lt;/div&gt;" style="rounded=0;whiteSpace=wrap;html=1;" parent="1" vertex="1">
          <mxGeometry x="130" y="470" width="120" height="60" as="geometry" />
        </mxCell>
        <mxCell id="yib6RBHgo7TCA4eGr_tR-6" value="PRINT&lt;br&gt;SQUARESUM" style="shape=document;whiteSpace=wrap;html=1;boundedLbl=1;" parent="1" vertex="1">
          <mxGeometry x="610" y="450" width="120" height="80" as="geometry" />
        </mxCell>
      </root>
    </mxGraphModel>
  </diagram>
</mxfile>
